<?xml version="1.0" encoding="utf-8"?>
<!-- Generator: Adobe Illustrator 23.0.1, SVG Export Plug-In . SVG Version: 6.00 Build 0)  -->
<svg version="1.1" id="Layer_1" xmlns="http://www.w3.org/2000/svg" xmlns:xlink="http://www.w3.org/1999/xlink" x="0px" y="0px"
	 width="1006.7px" height="238.8px" viewBox="0 0 1006.7 238.8" style="enable-background:new 0 0 1006.7 238.8;"
	 xml:space="preserve">
<style type="text/css">
	.st0{fill:#FFFFFF;}
</style>
<g>
	<path class="st0" d="M560.2,90.6l0.2-0.3L560.2,90.6c-3.5-2.4-8.6-3.5-13.6-3.5c-11.3,0-19.3,5.6-24.6,13.4c-5.3,7.8-7.7,18-7.7,27
		c0,6.5,1,12.6,4.9,18c2,2.7,6.7,9.1,22,9.1c10.6,0,15.7-2.8,18.4-4.4l0.5-0.6c0.5-2.3,2.3-12.9,3.1-15.6l-0.6-0.4
		c-5.4,4.3-11.2,7.4-17.9,7.4c-4.5,0-7.9-1.1-10.1-3.1c-2.3-2-3.4-5-3.4-8.7c0-1.4,0.1-2.6,0.2-4v-0.3h0.3
		c10.4-0.3,15.7-0.4,24.4-0.4c2.8,0,6.1,0,9.9,0l0.7-0.5c0.9-4,1.8-8.7,1.8-14.3C568.5,104.6,568,95.6,560.2,90.6z M553.3,112.7
		l-0.1,0.3l-10.2,0.1l-10.1,0.1l0.1-0.3v-0.1c0.2-0.7,0.4-1.5,0.7-2.3c0.7-2.2,1.7-4.6,3.4-6.9c0.3-0.4,0.6-0.8,1-1.1
		c3.1-3.4,6.1-3.9,8-3.9c2.7,0,4.7,1.1,5.9,2.7c0.2,0.3,0.4,0.6,0.6,0.9c0.6,1.1,1,2.3,1.2,3.6c0.1,0.5,0.1,0.9,0.1,1.4
		C554,108.9,553.7,110.8,553.3,112.7z M513.7,101.2l-0.7,0.7l-10-0.3l-4.6,21.9c-0.6,2.7-2.1,9.6-2.1,11.8c0,2.1,0.8,3.5,1.8,4.3
		c1.1,0.8,2.4,1.1,3.6,1.1c2.8,0,3.8-0.8,5.6-1.5l0.3,0.3l-2.5,12.6l-0.8,0.8c-3.4,0.7-6,1.3-9.6,1.3c-9.3-0.1-16.1-3.2-16.1-14.1
		c0-5.1,2.1-14.4,3.6-21.3l3.7-17.4l-7.9,0.3l-0.5-0.7l2.3-12.2l0.7-0.4h8l3.2-16.1l0.6-0.7c8-2.1,10.3-3,17.6-5.4l0.4,0.4L507.9,77
		l-2.5,11.7l10.3-0.3l0.3,0.5L513.7,101.2z M637.5,80.5l-0.6,0.6L610.4,81l-4.3,22.1l23.2-0.7l0.3,0.6c-1.9,6.4-2.4,8.2-3.6,13.7
		l-0.6,0.6l-22-0.1l-2.9,15.3l-3.7,19.9l-0.5,0.5l-19,0.5l-0.2-0.5l3.3-17l5-23.9c3.8-18.6,4.9-24.5,8.5-44.8l0.6-0.6h27.7l17.6-0.5
		l0.3,0.5L637.5,80.5z M675,91.3c-3.7-2.6-9.6-3.9-17.6-3.9c-4,0-8,0.4-12,1.2c-3.6,0.7-5.8,1.3-7.7,1.8l-0.5,0.5l-2.6,13.4l0.8,0.5
		c1.7-0.8,4.1-1.7,7.4-2.9c3.3-1.2,6.4-1.8,9.2-1.8c4,0,7.1,0.6,9.2,1.7c2.2,1.2,3.7,3.7,3.7,6.5c0,0.7-0.1,1.3-0.1,1.8
		c-0.1,0.5-0.2,0.9-0.2,1.1v0.3c0,0-1.3,0.1-2.7,0.2c-0.9,0.1-2.1,0.2-3.4,0.4c-2.2,0.2-4.8,0.5-7,0.9c-5.3,0.9-20.3,3.2-24.8,13.3
		c-4.7,8.2-3.9,19.1,0.7,24.4c1.6,1.9,4.1,3.6,7.5,4.3l0,0c0.1,0,0.7,0.1,0.8,0.1c13,2,22.3-9.3,22.3-9.3l-1.4,7l0.6,0.5l14.6-0.5
		l0.6-0.5l8.6-43c0.2-0.9,0.3-2,0.4-3.2c0.1-1.2,0.2-2.2,0.2-3C681.1,97.7,678.6,93.9,675,91.3z M660,134.3c0,0-3.5,5.5-8.5,7.4
		s-8.7,0.4-10.1-1.5c-1.1-1.5-3.5-6.3,1-11.7c4.6-5.5,19.8-5.8,19.8-5.8L660,134.3z M730.6,86.5L727,105l-0.7,0.8
		c-1-0.2-2.3-0.3-3.9-0.3c-4.8,0-11.6,1.5-17,8.6l-0.1,0.1l-7.4,38.4l-0.5,0.5l-16,0.5l-0.2-0.6l12.6-64.5l0.7-0.7l15.8-1.5l0.6,0.7
		l-1.8,9.3l0.8-0.7c3.3-3,6.2-5.1,9.5-6.9c3.2-1.9,6.5-2.8,9.8-2.8c0.3,0,0.6,0,1,0L730.6,86.5z M816.2,102.7
		c0,3.9-0.9,7.9-1.7,11.9l-7.4,37.9l-0.6,0.5l-16.7,0.6l-0.4-0.6c0,0,8.6-41.9,8.6-44c0-1.9-1-7-6.3-7c-4.2,0-8.5,4.2-8.5,4.2
		l-9,46.3l-0.6,0.5l-7.2,0.3l0,0l-6.4,0.2l-3.2,0.1l-0.2-0.3l-0.2-0.3c0,0,1.3-6.4,2.9-14.3l0,0c2.5-12.3,5.7-28.4,5.7-29.7
		c0-1.9-1-7-6.3-7c-4.2,0-8.5,4.2-8.5,4.2l-9,46.3l-0.6,0.5l-2.6,0.1l-14.2,0.5l-0.4-0.6l12.5-64.4l0.6-0.6l16.7-1.6l0.7,0.7
		l-1.8,9.1c0,0,8.1-8.8,18.3-9c9.6-0.2,11.6,9,11.6,9s9.5-9.2,19.7-9C806.7,87.1,816.2,89.4,816.2,102.7z M466.8,91.3
		c-3.7-2.6-9.6-3.9-17.6-3.9c-4,0-8,0.4-12,1.2c-3.6,0.7-5.9,1.3-7.8,1.8l-0.5,0.5l-2.6,13.4l0.8,0.5c1.7-0.8,4.1-1.7,7.4-2.9
		c3.3-1.2,6.4-1.8,9.2-1.8c4,0,7.1,0.6,9.2,1.7c2.2,1.2,3.7,3.7,3.7,6.5c0,0.7-0.1,1.3-0.1,1.8c-0.1,0.5-0.2,0.9-0.2,1.1v0.3
		c0,0-1.3,0.1-2.7,0.2c-0.9,0.1-2.1,0.2-3.4,0.4c-2.2,0.2-4.8,0.5-7,0.9c-5.3,0.9-20.3,3.2-24.8,13.3c-4.7,8.2-3.9,19.1,0.7,24.4
		c1.6,1.9,4.1,3.6,7.5,4.3l0,0c0.1,0,0.7,0.1,0.8,0.1c13,2,22.3-9.3,22.3-9.3l-1.4,7l0.6,0.5l14.6-0.5l0.6-0.5l8.6-43
		c0.2-0.9,0.3-2,0.4-3.2s0.2-2.2,0.2-3C473,97.7,470.5,93.9,466.8,91.3z M451.8,134.3c0,0-3.5,5.5-8.5,7.4s-8.6,0.4-10.1-1.5
		c-1.1-1.5-3.5-6.3,1-11.7c4.6-5.5,19.8-5.8,19.8-5.8L451.8,134.3z M416.7,101.2l-0.7,0.7l-10-0.3l-4.6,21.9
		c-0.7,2.7-2.1,9.6-2.1,11.8c0,2.1,0.8,3.5,1.8,4.3c1.1,0.8,2.4,1.1,3.6,1.1c2.8,0,3.8-0.8,5.6-1.5l0.3,0.3l-2.5,12.6l-0.8,0.8
		c-3.4,0.7-6,1.3-9.6,1.3c-9.3-0.1-16.1-3.2-16.1-14.1c0-5.1,2.1-14.4,3.6-21.3l3.7-17.4l-7.9,0.3l-0.5-0.7l2.3-12.2l0.7-0.4h8
		l3.2-16.1l0.6-0.7c8-2.1,10.3-3,17.6-5.4l0.4,0.4L410.9,77l-2.5,11.7l10.3-0.3l0.3,0.5L416.7,101.2z M379,71.4l-3,15.7l-0.7,0.2
		c-1.2-1.7-1.9-2.4-3.6-3.7c-3.8-2.9-8.2-4.5-12.7-4.5c-3.6,0-6.5,1.1-8.6,3c-2.1,1.8-3.2,4.5-3.2,7.4c0,5.5,3.8,8.2,10.5,12.3
		l2.6,1.5c5.6,3.7,14.4,9.4,14.4,22.3c0,14.6-9.4,29.3-31.9,29.4c-5.5,0-10.9-1-16.1-2.9c-3.5-1.3-5.2-2.5-7.3-4.1l-0.2-1l3-15.3
		l0.7-0.2c1.4,1.8,3.1,3.2,5.6,4.9c5.4,3.6,10.6,4,12.8,4c7.9,0,14.2-4.5,14.2-11.6c0-6.3-5-9.5-10.2-12.5l-3.6-2.2
		c-5.7-3.7-13.5-8.8-13.6-21.4c0-4.9,1.4-11.8,5.7-17.6c5.7-7.5,14.6-10.2,23.6-10.2c11.6,0,18.2,4.1,21.3,6.1L379,71.4z
		 M216.3,99.1c4.6,2.8,11,4.6,18.2,4.6s13.7-1.8,18.3-4.6c4.6-2.8,7.4-6.6,7.4-10.6s-2.7-7.8-7.4-10.6c-4.6-2.8-11.1-4.5-18.3-4.6
		c-7.2,0-13.6,1.8-18.2,4.6c-4.6,2.8-7.3,6.5-7.3,10.6C209,92.5,211.7,96.3,216.3,99.1z M217.4,120.8c-4.6-2.8-11.1-4.5-18.3-4.5
		c-7.2,0-13.6,1.8-18.2,4.5c-4.6,2.8-7.3,6.5-7.3,10.5s2.7,7.8,7.3,10.6c4.6,2.8,11,4.6,18.2,4.6s13.7-1.8,18.3-4.6
		c4.6-2.8,7.4-6.6,7.4-10.6C224.8,127.4,222,123.6,217.4,120.8z M288,120.8c-4.6-2.8-11.1-4.5-18.3-4.5s-13.6,1.8-18.2,4.5
		c-4.6,2.8-7.3,6.5-7.3,10.6c0,4,2.7,7.8,7.3,10.6c4.6,2.8,11,4.6,18.2,4.6s13.7-1.8,18.3-4.6c4.6-2.8,7.4-6.6,7.4-10.6
		C295.3,127.4,292.6,123.6,288,120.8z M269.6,105.7c-3.3,0-6.4,0.3-9.4,0.9c6.5-4.7,10.6-11.1,10.6-18.2c0-14.3-16.2-25.6-36.3-25.6
		s-36.1,11.3-36.1,25.6c0,7.1,4,13.5,10.4,18.2c-3-0.6-6.2-0.9-9.5-0.9c-20.1,0-36.1,11.3-36.1,25.6c0,14.2,15.9,25.8,36,25.8
		c17.1,0,31.5-8.4,35.4-19.6c3.8,11.3,17.9,19.6,35,19.6c20.1,0,36.4-11.6,36.4-25.8C305.9,117.1,289.7,105.7,269.6,105.7z
		 M204.9,88.4c0-6.4,4.9-10.8,7.8-12.8c5.7-4.1,13.5-6.3,21.8-6.3c8.4,0,16.2,2.2,21.9,6.3c2.9,2,7.8,6.4,7.8,12.8
		c-0.1,10.7-13.8,19.2-29.8,19.2c-8.3,0-16-2.2-21.7-6.3C207.7,97.8,204.9,93.2,204.9,88.4z M199.1,150.6c-8.3,0-16-2.2-21.7-6.3
		c-4.9-3.5-7.7-8.1-7.7-12.9c0-6.4,4.9-10.8,7.8-12.8c5.7-4,13.5-6.2,21.8-6.3c8.4,0,16.2,2.2,21.9,6.3c2.9,2,7.8,6.4,7.9,12.8
		C228.9,142,215.1,150.6,199.1,150.6z M234.5,125.2c-1.6-4.5-4.8-8.6-9.3-11.8c2.9,0.5,6,0.8,9.2,0.8c3.3,0,6.4-0.3,9.4-0.9
		C239.3,116.6,236.1,120.6,234.5,125.2z M269.5,150.6c-8.3,0-16-2.2-21.7-6.3c-4.9-3.5-7.8-8.1-7.8-12.9c0-6.4,4.9-10.8,7.8-12.8
		c5.7-4,13.5-6.2,21.8-6.3c8.4,0,16.1,2.2,21.9,6.3c2.9,2,7.8,6.4,7.8,12.8C299.3,142,285.5,150.6,269.5,150.6z"/>
	<path class="st0" d="M823,99.6c0-5.8,4.7-10.1,10.3-10.1c5.5,0,10.2,4.3,10.2,10.1c0,5.9-4.7,10.1-10.2,10.1
		C827.7,109.8,823,105.5,823,99.6z M833.3,108.1c4.6,0,8.2-3.6,8.2-8.5c0-4.8-3.6-8.4-8.2-8.4c-4.6,0-8.2,3.6-8.2,8.4
		C825,104.5,828.6,108.1,833.3,108.1z M831.5,104.7H830V94.6h3.9c2.4,0,3.6,0.9,3.6,2.9c0,1.8-1.1,2.6-2.6,2.8l2.9,4.5h-1.7
		l-2.7-4.4h-1.8v4.3H831.5z M833.3,99c1.3,0,2.5-0.1,2.5-1.7c0-1.3-1.2-1.5-2.3-1.5h-2.1V99H833.3z"/>
</g>
</svg>
